<svg id="Layer_1" data-name="Layer 1" xmlns="http://www.w3.org/2000/svg" viewBox="0 0 338 100"><title>Artboard 1</title><path d="M172.762,32.55h.3c.2,0,.3,0,.3-.2s-.2-.2-.3-.2h-.3v.4Zm-.3-.7h.6c.4,0,.6.1.6.5a.366.366,0,0,1-.4.4l.4.7h-.3l-.4-.7h-.2v.7h-.3v-1.6Zm.5,2a1.11,1.11,0,0,0,1.1-1.1,1.049,1.049,0,0,0-1.1-1.1,1.1,1.1,0,0,0,0,2.2Zm0-2.6a1.453,1.453,0,0,1,1.5,1.4,1.5,1.5,0,0,1-3,0,1.6,1.6,0,0,1,1.5-1.4Zm-27.4,0-6.7,6.7v-4.5l-2.2-2.2h-8.9l-2.2,2.2v4.5l-4.4,4.4-4.4-4.4v-4.5l-2.2-2.2h-9l-2.2,2.2-2.2-2.2h-8.9l-2.2,2.2v8.9l-11.1-11.1h-8.9l-2.2,2.2v31.2l2.2,2.2h8.9l2.2-2.2v-8.9l11,11.1h8.9l2.2-2.2V46.85l11.1,11.1v6.7l2.2,2.2h8.9l2.2-2.2v-6.7l11.2-11.1v13.3l6.7,6.7h22.2l6.7-6.7v-6.7l-2.2-2.2h-11.1v2.2h-8.9v-8.9h8.9v2.2h11.1l2.2-2.2v-6.7l-6.7-6.7-22.2.1Z" fill="#c00"/><g style="isolation:isolate"><path d="M193.94,36.99c-.229-1.655-1.518-2.529-3.311-2.529-2.76,0-3.817,2.438-3.817,4.875s1.058,4.875,3.817,4.875a3.047,3.047,0,0,0,3.311-3.035h4.277c-.229,4.23-3.334,6.714-7.5,6.714-4.967,0-8.187-3.794-8.187-8.554s3.22-8.555,8.187-8.555c3.541,0,7.381,2.254,7.5,6.209Z"/><path d="M211.759,47.545h-3.795V45.912h-.046a4.4,4.4,0,0,1-3.633,1.978c-3.427,0-4.415-1.978-4.415-5.1V35.61h3.909v6.922c0,1.587.689,2.139,1.932,2.139.851,0,2.139-.552,2.139-2.668V35.61h3.909Z"/><path d="M214.008,31.127h3.909V47.545h-3.909Z"/><path d="M227.259,38.14h-2.414v5.427c0,.943.552,1.15,1.4,1.15.322,0,.667-.046,1.012-.046v2.874c-.713.023-1.426.115-2.139.115-3.334,0-4.185-.966-4.185-4.208V38.14h-1.978V35.61h1.978V32h3.909v3.61h2.414Z"/><path d="M240.441,47.545h-3.795V45.912H236.6a4.4,4.4,0,0,1-3.633,1.978c-3.427,0-4.415-1.978-4.415-5.1V35.61h3.909v6.922c0,1.587.689,2.139,1.932,2.139.851,0,2.139-.552,2.139-2.668V35.61h3.909Z"/><path d="M242.69,35.61h3.794V37.7h.047a3.6,3.6,0,0,1,3.587-2.322,4.142,4.142,0,0,1,.92.092v3.564a5.451,5.451,0,0,0-1.5-.23,2.745,2.745,0,0,0-2.943,2.828v5.91H242.69Z"/><path d="M251.811,39.29a3.666,3.666,0,0,1,1.862-3.2,7.864,7.864,0,0,1,3.794-.828c2.828,0,5.564.621,5.564,4v5.22a6.943,6.943,0,0,0,.46,3.059H259.56a4.736,4.736,0,0,1-.23-1.127A5.386,5.386,0,0,1,255.4,47.89c-2.276,0-4.07-1.149-4.07-3.61,0-3.886,4.231-3.587,6.944-4.139.667-.138,1.035-.368,1.035-1.1,0-.9-1.081-1.242-1.886-1.242a1.748,1.748,0,0,0-1.954,1.5Zm5.059,6.186c1.862,0,2.483-1.058,2.392-3.519a11.012,11.012,0,0,1-2.415.644c-.873.207-1.609.575-1.609,1.519C255.236,45.084,256,45.476,256.869,45.476Z"/><path d="M265.239,31.127h3.909V47.545h-3.909Z"/></g><g style="isolation:isolate"><path d="M187.5,50.366h4.346l6.14,16.418h-4.461l-1.012-2.943h-5.726l-1.035,2.943h-4.392Zm.275,10.3H191.5l-1.816-5.749h-.046Z"/><path d="M199.219,57.379h-1.886V54.85h1.886c0-3.426,1.2-4.483,4.53-4.483.621,0,1.265.046,1.886.068v2.76a8.464,8.464,0,0,0-1.058-.069c-.9,0-1.449.115-1.449,1.2v.528h2.346v2.529h-2.346v9.405h-3.909Z"/><path d="M207.735,57.379H205.85V54.85h1.886c0-3.426,1.2-4.483,4.53-4.483.621,0,1.265.046,1.886.068v2.76a8.464,8.464,0,0,0-1.058-.069c-.9,0-1.449.115-1.449,1.2v.528h2.346v2.529h-2.346v9.405h-3.909Z"/><path d="M214.737,58.529a3.666,3.666,0,0,1,1.862-3.2,7.864,7.864,0,0,1,3.794-.828c2.828,0,5.564.621,5.564,4v5.22a6.943,6.943,0,0,0,.46,3.059h-3.932a4.736,4.736,0,0,1-.23-1.127,5.386,5.386,0,0,1-3.932,1.472c-2.276,0-4.07-1.149-4.07-3.61,0-3.886,4.231-3.587,6.944-4.139.667-.138,1.035-.368,1.035-1.1,0-.9-1.081-1.242-1.886-1.242a1.748,1.748,0,0,0-1.954,1.5Zm5.059,6.186c1.862,0,2.483-1.058,2.392-3.519a11.012,11.012,0,0,1-2.415.644c-.873.207-1.609.575-1.609,1.519C218.163,64.323,218.922,64.715,219.8,64.715Z"/><path d="M232.075,53.355h-3.909V50.366h3.909Zm-3.909,1.494h3.909V66.784h-3.909Z"/><path d="M234.355,54.85h3.794v2.093h.046a3.6,3.6,0,0,1,3.587-2.322,4.142,4.142,0,0,1,.92.092v3.564a5.45,5.45,0,0,0-1.494-.23,2.745,2.745,0,0,0-2.943,2.828v5.91h-3.909Z"/><path d="M246.834,62.852a1.6,1.6,0,0,0,.644,1.334,2.449,2.449,0,0,0,1.449.414c.759,0,1.84-.322,1.84-1.265,0-.92-1.219-1.1-1.909-1.265-2.46-.621-5.542-.69-5.542-3.909,0-2.874,3.1-3.656,5.45-3.656,2.621,0,5.357.759,5.5,3.863h-3.61a1.124,1.124,0,0,0-.506-1.035,2.313,2.313,0,0,0-1.242-.3c-.644,0-1.679.069-1.679.9,0,1.127,2.622,1.334,4.415,1.725a3.385,3.385,0,0,1,3.036,3.22c0,3.2-3.036,4.254-5.727,4.254-2.828,0-5.726-.942-5.84-4.277Z"/></g></svg>